<svg xmlns="http://www.w3.org/2000/svg" width="15" height="119" viewBox="0 0 15 119">
    <g fill="none" fill-rule="evenodd">
        <g>
            <g>
                <g>
                    <g>
                        <path fill="#FD0" d="M62.199-50.98C60.123-40.5 53.919-8.028 56.086 39.1c1.027 22.338 8.103 28.366 8.103 22.965V-39.985c0-4.148-.058-7.183-.156-9.375L62.2-50.98z" transform="translate(-519 -146) rotate(-90 417.5 -82.847) translate(70 19.413) translate(0 .98) matrix(0 -1 -1 0 66.38 66.38)"/>
                        <path fill="#867A6D" d="M57.416 38.81c-.504-11.026-.579-21.88-.242-32.531 1.755-.53 3.422-1.116 4.978-1.756v56.452c-1.531-2.456-4.131-8.892-4.736-22.165m4.721-82.767c.009 1.031.015 2.168.015 3.416V.877c-1.493.673-3.098 1.298-4.821 1.858.653-16.08 2.236-31.695 4.806-46.692m3.167-6.915l-4.973-1.69c-3.594 18.248-5.729 37.44-6.429 57.333-.008.057-.001.114-.005.172-.386 11.134-.338 22.481.189 34.021.785 17.228 5.125 26.525 8.808 26.525.432 0 2.592-.17 2.592-3.537V-40.54c0-4.66-.054-7.964-.182-10.331" transform="translate(-519 -146) rotate(-90 417.5 -82.847) translate(70 19.413) translate(0 .98) scale(1 -1) rotate(90 66.028 0)"/>
                    </g>
                </g>
            </g>
        </g>
    </g>
</svg>
