<svg xmlns="http://www.w3.org/2000/svg" width="96" height="60" viewBox="0 0 96 60">
    <g fill="none" fill-rule="evenodd">
        <g>
            <g>
                <g>
                    <g>
                        <path fill="#FD0" d="M90.028 11.028C86.715 9.214 72.17 2.325 47.198 2.3h-.135c-24.975.026-39.516 6.915-42.83 8.73-1.998 1.096-2.615 2.91-2.016 5.937.947 4.781 5.915 35.049 6.242 36.74.376 1.949 2.076 2.283 3.696 1.765 5.304-1.695 19.6-3.274 34.976-3.28 15.375.006 29.671 1.585 34.975 3.28 1.62.518 3.32.184 3.697-1.764.327-1.692 5.294-31.96 6.241-36.741.6-3.027-.017-4.841-2.016-5.938" transform="translate(-908 -107) rotate(-90 607.5 -272.847) translate(168.333 27.783) rotate(90 29.126 29.333)"/>
                        <path fill="#867A6D" d="M47.063.69c26.17.026 41.02 7.44 43.732 8.925 3.831 2.1 3.124 6.124 2.84 7.574l-.019.091c-.398 2.013-1.512 8.56-2.698 15.624l-.163.966c-.08.484-.162.97-.244 1.456l-.162.973-1.26 7.535c-.314 1.892-.6 3.605-.844 5.066l-.096.57c-.419 2.507-.699 4.164-.773 4.543-.377 1.954-1.803 3.195-3.746 3.281l-.218.005c-.58 0-1.183-.098-1.792-.293-4.847-1.55-18.582-3.2-34.49-3.204-15.907.005-29.642 1.653-34.49 3.204-.609.195-1.211.293-1.792.293-2.053 0-3.57-1.26-3.962-3.286-.12-.62-.793-4.654-1.725-10.237l-1.175-7.034-.243-1.455-.082-.485-.162-.969C2.256 26.423 1.061 19.38.646 17.278c-.271-1.365-1.093-5.518 2.82-7.663C6.178 8.13 21.027.715 47.062.69zm.133 3.22c-25.388.024-39.602 7.11-42.195 8.532-.933.51-1.797 1.258-1.212 4.21.45 2.273 1.783 10.144 3.113 18.085l.162.973c.434 2.592.864 5.168 1.258 7.534.858 5.138 1.598 9.576 1.71 10.156.089.46.235.679.816.679.247 0 .53-.048.821-.142 5.97-1.907 21.215-3.35 35.461-3.355 14.247.005 29.492 1.448 35.463 3.355.29.094.572.142.82.142.583 0 .727-.219.817-.68.07-.367.394-2.288.84-4.952l.097-.582.762-4.563c1.657-9.933 3.927-23.538 4.543-26.651.585-2.951-.278-3.698-1.212-4.209-2.592-1.421-16.807-8.508-42.064-8.532z" transform="translate(-908 -107) rotate(-90 607.5 -272.847) translate(168.333 27.783) rotate(90 29.126 29.333)"/>
                    </g>
                </g>
            </g>
        </g>
    </g>
</svg>
