<?xml version="1.0" encoding="UTF-8"?>
<svg id="Layer_1" xmlns="http://www.w3.org/2000/svg" version="1.1" viewBox="0 0 15 119">
  <!-- Generator: Adobe Illustrator 29.0.1, SVG Export Plug-In . SVG Version: 2.1.0 Build 192)  -->
  <defs>
    <style>
      .st0 {
        fill: #867a6d;
      }

      .st0, .st1 {
        fill-rule: evenodd;
      }

      .st1 {
        fill: #3661e2;
      }
    </style>
  </defs>
  <path class="st1" d="M9.1,1.3C7,11.8.8,44.2,3,91.4c1,22.3,8.1,28.4,8.1,23V12.3c0-4.1,0-7.2-.2-9.4,0,0-1.8-1.6-1.8-1.6Z"/>
  <path class="st0" d="M4.6,91.4c-.5-11-.6-21.9-.2-32.5,1.8-.5,3.4-1.1,5-1.8v56.5c-1.5-2.5-4.1-8.9-4.7-22.2M9.4,8.7c0,1,0,2.2,0,3.4v41.4c-1.5.7-3.1,1.3-4.8,1.9.7-16.1,2.2-31.7,4.8-46.7M12.5,1.8L7.6,0C4,18.3,1.8,37.5,1.1,57.4c0,0,0,.1,0,.2-.4,11.1-.3,22.5.2,34,.8,17.2,5.1,26.5,8.8,26.5s2.6-.2,2.6-3.5V12.1c0-4.7,0-8-.2-10.3"/>
</svg>