<svg xmlns="http://www.w3.org/2000/svg" width="84" height="51" viewBox="0 0 84 51">
    <g fill="none" fill-rule="evenodd">
        <g>
            <g>
                <g>
                    <g>
                        <path fill="#FD0" d="M80.007 33.917c-.06-2.667-1.534-25.66-1.656-28.537-.11-2.543-1.584-3.94-4.118-3.633-3.067.37-19.567 4.024-33.265 4.034v.003c-13.66-.042-29.84-3.669-32.892-4.037-2.536-.306-4.01 1.09-4.118 3.633C3.836 8.257 2.36 31.25 2.3 33.917c-.059 2.666-.362 3.394 1.63 4.667 1.985 1.269 15.03 8.309 37.038 8.362v.003l.06-.001.06.001v-.003c22.01-.053 35.306-7.093 37.288-8.362 1.994-1.273 1.691-2 1.63-4.667" transform="translate(-1103 -252) rotate(-90 702.5 -367.847) translate(31.667 32.805) rotate(90 23.985 25.145)"/>
                        <path fill="#867A6D" d="M74.042.148C76.135-.1 77.45.592 78.185 1.22c1.08.924 1.693 2.339 1.767 4.092.051 1.204.34 5.94.662 11.23.449 7.387.96 15.758.995 17.34l.027.85c.085 2.295.015 3.668-2.398 5.21l-.048.03c-.91.56-14.394 8.557-37.968 8.587-.026 0-.045-.013-.069-.013-.022 0-.042.013-.066.013-23.572-.03-37.058-8.027-37.97-8.586l-.048-.03C.657 38.4.59 37.027.672 34.733l.027-.852c.035-1.58.546-9.952.995-17.34.322-5.288.613-10.025.662-11.229.076-1.753.686-3.168 1.767-4.092C4.86.592 6.178-.102 8.266.148c.712.085 1.997.32 3.778.645 6.471 1.18 18.515 3.376 29.11 3.384C51.747 4.17 63.792 1.973 70.263.793c1.78-.325 3.068-.56 3.778-.645zm2.067 3.525c-.452-.385-1.165-.39-1.686-.328-.614.074-1.925.312-3.585.616-6.57 1.198-18.8 3.428-29.683 3.436h-.002l-.654-.003C29.783 7.3 17.91 5.135 11.472 3.96c-1.66-.304-2.973-.542-3.587-.616-.52-.061-1.233-.057-1.685.328-.484.414-.616 1.195-.641 1.776-.051 1.21-.34 5.973-.665 11.289l-.146 2.39-.048.8-.049.801-.048.798-.048.792c-.333 5.52-.625 10.496-.65 11.635l-.03.896c-.063 1.75-.063 1.75.916 2.377.127.08 12.918 8.083 36.298 8.112.024 0 .042.013.064.013.024 0 .043-.013.066-.013 23.382-.029 36.171-8.032 36.298-8.112.98-.627.98-.627.915-2.378l-.027-.895c-.027-1.139-.319-6.114-.652-11.635l-.048-.792-.048-.798-.098-1.602-.048-.8-.097-1.59C77.09 11.423 76.8 6.66 76.75 5.45c-.026-.581-.157-1.362-.64-1.776z" transform="translate(-1103 -252) rotate(-90 702.5 -367.847) translate(31.667 32.805) rotate(90 23.985 25.145)"/>
                    </g>
                </g>
            </g>
        </g>
    </g>
</svg>
