<svg xmlns="http://www.w3.org/2000/svg" width="15" height="119" viewBox="0 0 15 119">
    <g fill="none" fill-rule="evenodd">
        <g>
            <g>
                <g>
                    <path fill="#FD0" d="M62.199-51.508c-2.076 10.479-8.28 42.952-6.113 90.079 1.027 22.338 8.103 28.366 8.103 22.965V-40.513c0-4.148-.058-7.183-.156-9.375l-1.834-1.62z" transform="translate(-806 -146) rotate(-90 512.5 -177.847) translate(70 116.5) rotate(90 59.911 5.941)"/>
                    <path fill="#867A6D" d="M57.416 38.293c-.504-11.026-.579-21.88-.242-32.531 1.755-.531 3.422-1.117 4.978-1.756v56.451c-1.531-2.456-4.131-8.892-4.736-22.164m4.721-82.768c.009 1.032.015 2.168.015 3.417V.36c-1.493.673-3.098 1.297-4.821 1.858.653-16.08 2.236-31.696 4.806-46.693m3.167-6.915l-4.973-1.689c-3.594 18.248-5.729 37.44-6.429 57.332-.008.057-.001.114-.005.173-.386 11.133-.338 22.48.189 34.02.785 17.229 5.125 26.526 8.808 26.526.432 0 2.592-.171 2.592-3.537V-41.058c0-4.66-.054-7.965-.182-10.332" transform="translate(-806 -146) rotate(-90 512.5 -177.847) translate(70 116.5) rotate(90 59.564 5.947)"/>
                </g>
            </g>
        </g>
    </g>
</svg>
