<?xml version="1.0" encoding="UTF-8"?>
<svg id="Layer_1" xmlns="http://www.w3.org/2000/svg" version="1.1" viewBox="0 0 84 51">
  <!-- Generator: Adobe Illustrator 29.0.1, SVG Export Plug-In . SVG Version: 2.1.0 Build 192)  -->
  <defs>
    <style>
      .st0 {
        fill: #867a6d;
      }

      .st0, .st1 {
        fill-rule: evenodd;
      }

      .st1 {
        fill: #3661e2;
      }
    </style>
  </defs>
  <path class="st1" d="M81.3,35.8c0-2.7-1.5-25.7-1.7-28.5-.1-2.5-1.6-3.9-4.1-3.6-3.1.4-19.6,4-33.3,4h0c-13.7,0-29.8-3.7-32.9-4-2.5-.3-4,1.1-4.1,3.6-.1,2.9-1.6,25.9-1.7,28.5,0,2.7-.4,3.4,1.6,4.7,2,1.3,15,8.3,37,8.4h0s0,0,0,0h0s0,0,0,0c22,0,35.3-7.1,37.3-8.4,2-1.3,1.7-2,1.6-4.7"/>
  <path class="st0" d="M75.4,2c2.1-.2,3.4.4,4.1,1.1,1.1.9,1.7,2.3,1.8,4.1,0,1.2.3,5.9.7,11.2.4,7.4,1,15.8,1,17.3v.8c.1,2.3,0,3.7-2.4,5.2h0c-.9.6-14.4,8.6-38,8.6,0,0,0,0,0,0s0,0,0,0c-23.6,0-37.1-8-38-8.6h0c-2.4-1.6-2.5-2.9-2.4-5.2v-.9c0-1.6.6-10,1-17.3.3-5.3.6-10,.7-11.2,0-1.8.7-3.2,1.8-4.1.7-.6,2.1-1.3,4.1-1.1.7,0,2,.3,3.8.6,6.5,1.2,18.5,3.4,29.1,3.4,10.6,0,22.6-2.2,29.1-3.4,1.8-.3,3.1-.6,3.8-.6h0ZM77.4,5.5c-.5-.4-1.2-.4-1.7-.3-.6,0-1.9.3-3.6.6-6.6,1.2-18.8,3.4-29.7,3.4h-.7c-10.7,0-22.6-2.3-29-3.4-1.7-.3-3-.5-3.6-.6-.5,0-1.2,0-1.7.3-.5.4-.6,1.2-.6,1.8,0,1.2-.3,6-.7,11.3v2.4c-.1,0-.2.8-.2.8v.8s0,.8,0,.8v.8c-.4,5.5-.7,10.5-.7,11.6v.9q0,1.8.9,2.4c.1,0,12.9,8.1,36.3,8.1,0,0,0,0,0,0s0,0,0,0c23.4,0,36.2-8,36.3-8.1q1-.6.9-2.4v-.9c0-1.1-.3-6.1-.7-11.6v-.8s0-.8,0-.8v-1.6c0,0-.1-.8-.1-.8v-1.6c-.4-5.3-.7-10.1-.8-11.3,0-.6-.2-1.4-.6-1.8h0Z"/>
</svg>