<svg xmlns="http://www.w3.org/2000/svg" width="148" height="301" viewBox="0 0 148 301">
    <g fill="none" fill-rule="evenodd">
        <g>
            <g>
                <path fill="#867A6D" d="M220.031 38.4c-.153 1.12-.59 1.332-1.34 1.332-.62 0-1.42-.197-2.312-.571l-.273-.116c-4.303-1.806-8.328-3.457-10.311-3.803-.514-.092-1.033-.137-1.545-.137-1.133 0-2.17.218-3.007.613-.349-1.014-.658-2.807-.11-4.933.42-1.637.764-1.891.765-1.895.004 0 .395-.016.773.012 1.013.076 2.179.026 3.17-.342 3.718-1.375 7.238-.835 10.07 1.585 3.245 2.772 4.407 6.143 4.12 8.254zm-13.563 99.1c.005 7.153.015 17.964-.124 22.012-.168 4.935-1.496 9.366-1.648 9.854l-.141.433c-.437 1.305-1.25 3.737-1.402 7.814-.01.289-.018.658-.028 1.094-.277 13.948-3.634 23.838-9.983 29.52-.38-5.087-1.388-15.618-3.714-25.088-.215-.87-1.095-1.401-1.97-1.191-.875.213-1.411 1.092-1.196 1.963 2.668 10.86 3.562 23.2 3.77 26.616-.64.387-1.295.75-1.98 1.073-12.324 5.776-29.35 6.862-36.096 7.06l-.847.05-1.128-.009-.435.003-1.501-.044c-6.747-.198-23.772-1.284-36.095-7.06-.686-.323-1.343-.686-1.982-1.073.207-3.418 1.102-15.758 3.771-26.616.214-.87-.32-1.75-1.196-1.963-.875-.21-1.755.32-1.97 1.191-2.326 9.47-3.333 20.001-3.714 25.088-6.35-5.682-9.708-15.572-9.983-29.52-.01-.436-.018-.805-.028-1.094-.152-4.077-.966-6.509-1.401-7.814l-.142-.433c-.152-.49-1.48-4.924-1.648-9.854-.14-4.053-.129-14.874-.124-22.036l.002-98.706c.482-.151.92-.275 1.235-.33.328-.057.657-.086.981-.086 1.094 0 1.75.32 1.88.464.366.459.909.72 1.485.72.473 0 1.17-.173 1.82-1.005 1.23-1.58 1.999-5.025 1.091-8.555-.583-2.261-1.488-4.354-4.146-4.354-.25 0-.513.018-.787.037-.596.044-1.255.054-1.799-.146-.587-.219-1.175-.394-1.76-.536v-1.776l-.007-4.927c-.032-15.456-.096-44.227 1.584-55.138.432-2.812 1.343-5.363 2.523-7.666-.543 8.28-1.268 23.748-.608 40.82.22 5.686 1.177 12.547 6.674 15.143.225.106.463.155.696.155.61 0 1.194-.342 1.474-.93.385-.809.038-1.779-.775-2.163-3.053-1.442-4.537-5.244-4.811-12.331-.89-22.98.75-43.028 1.035-46.25 3.585-4.33 7.783-7.244 10.17-8.694l.29-.178c.064-.037.137-.084.204-.125-.603 1.87-1.13 4.24-1.466 7.256-.102.892.544 1.695 1.437 1.794.063.008.124.011.184.011.82 0 1.524-.613 1.618-1.444.787-7.042 2.72-10.288 3.86-11.22 5.82-4.005 16.315-6.311 30.422-6.67l.834-.047c.378 0 .758.005 1.147.01l.354-.003 1.587.04c14.105.357 24.596 2.664 30.417 6.668 1.14.924 3.077 4.168 3.868 11.222.09.83.796 1.444 1.616 1.444.06 0 .12-.003.183-.011.894-.1 1.538-.902 1.439-1.794-.338-3.016-.864-5.387-1.469-7.256.066.039.137.085.2.122l.296.18c2.387 1.45 6.584 4.365 10.17 8.693.284 3.22 1.925 23.27 1.035 46.252-.274 7.087-1.757 10.889-4.81 12.331-.814.384-1.16 1.354-.776 2.163.278.588.864.93 1.475.93.233 0 .47-.05.696-.155 5.496-2.596 6.453-9.457 6.673-15.144.66-17.07-.064-32.539-.606-40.817 1.178 2.303 2.087 4.852 2.52 7.664 1.68 10.91 1.619 39.675 1.585 55.128l-.007 4.937v1.776c-.586.142-1.173.317-1.76.536-.544.2-1.204.192-1.799.146-.275-.02-.536-.037-.787-.037-2.658 0-3.564 2.093-4.146 4.354-.908 3.528-.138 6.974 1.092 8.555.647.832 1.346 1.006 1.819 1.006.577 0 1.118-.262 1.484-.718.13-.147.787-.467 1.88-.467.324 0 .656.029.982.086.314.055.753.179 1.235.33l.002 98.73zM83.904 39.041l-.28.117c-.895.376-1.694.573-2.313.573-.751 0-1.19-.211-1.341-1.333-.287-2.11.875-5.482 4.118-8.254 1.812-1.548 3.877-2.332 6.136-2.332 1.272 0 2.597.25 3.937.747.992.366 2.157.417 3.168.342.194-.015.376-.03.552-.03.15 0 .212.012.21.013.028.02.365.298.778 1.9.547 2.126.238 3.92-.111 4.933-1.214-.574-2.904-.766-4.552-.476-1.981.345-6.005 1.995-10.302 3.8zm134.13-11.363c-2.4-2.05-5.276-3.08-8.308-3.08v-1.396l.006-4.93c.034-15.541.096-44.472-1.62-55.63-2.045-13.268-13.203-21.34-18.035-24.273l-.152-.094c-1.494-.92-4.276-2.632-5.3-3.37-.092-.068-.196-.128-.293-.193-.115-.092-.223-.171-.32-.235-.028-.018-.061-.02-.089-.037-7.638-5.06-20.312-6.627-30.29-6.993v-.1h-1.63c-.687 0-1.359.004-1.983.012-.663-.008-1.335-.013-2.022-.013l-1.63.052v.05c-9.98.365-22.655 1.931-30.293 6.993-.028.017-.06.018-.087.036-.094.062-.202.142-.314.23-.098.066-.204.128-.3.198-1.024.738-3.81 2.453-5.306 3.374l-.272.168c-4.704 2.855-15.863 10.927-17.905 24.196-1.718 11.159-1.656 40.094-1.622 55.639l.007 4.92V24.6c-3.033-.002-5.91 1.028-8.31 3.08-3.67 3.136-5.722 7.516-5.226 11.157.353 2.595 2.061 4.144 4.571 4.144 1.064 0 2.268-.276 3.577-.827l.282-.118c1.43-.601 3.328-1.397 5.106-2.092l-.002 97.53c-.005 7.182-.015 18.04.126 22.149.182 5.348 1.624 10.166 1.789 10.698l.164.505c.387 1.15 1.104 3.296 1.237 6.908.01.273.018.622.026 1.037.335 16.8 5.015 28.212 13.896 34.038.033.018.057.044.092.058.945.614 1.921 1.185 2.96 1.672 11.692 5.482 26.865 6.949 35.804 7.313l1.599.101s.313.005.883.005l1.131-.006 1.17.006c.57 0 .882-.005.882-.005l1.6-.075v-.026c8.939-.364 24.112-1.83 35.805-7.313 1.038-.487 2.014-1.058 2.958-1.672.036-.014.062-.04.094-.06 8.88-5.824 13.56-17.237 13.895-34.036.008-.415.016-.764.026-1.037.133-3.612.85-5.757 1.235-6.908l.166-.505c.165-.53 1.607-5.342 1.79-10.698.14-4.105.13-14.95.125-22.127l-.001-97.552c1.78.695 3.683 1.494 5.113 2.095l.274.115c1.309.55 2.513.827 3.577.827 2.51 0 4.216-1.55 4.57-4.144.497-3.643-1.555-8.023-5.227-11.158z" transform="translate(-73 -34) rotate(-90 203.5 131.153) rotate(90 150 74.653)"/>
                <g>
                    <g>
                        <path fill="#E5E0DB" d="M80.007 33.917c-.06-2.667-1.534-25.66-1.656-28.537-.11-2.543-1.584-3.94-4.118-3.633-3.067.37-19.567 4.024-33.265 4.034v.003c-13.66-.042-29.84-3.669-32.892-4.037-2.536-.306-4.01 1.09-4.118 3.633C3.836 8.257 2.36 31.25 2.3 33.917c-.059 2.666-.362 3.394 1.63 4.667 1.985 1.269 15.03 8.309 37.038 8.362v.003l.06-.001.06.001v-.003c22.01-.053 35.306-7.093 37.288-8.362 1.994-1.273 1.691-2 1.63-4.667" transform="translate(-73 -34) rotate(-90 203.5 131.153) translate(31.667 32.805) rotate(90 23.985 25.145)"/>
                        <path fill="#867A6D" d="M74.042.148C76.135-.1 77.45.592 78.185 1.22c1.08.924 1.693 2.339 1.767 4.092.051 1.204.34 5.94.662 11.23.449 7.387.96 15.758.995 17.34l.027.85c.085 2.295.015 3.668-2.398 5.21l-.048.03c-.91.56-14.394 8.557-37.968 8.587-.026 0-.045-.013-.069-.013-.022 0-.042.013-.066.013-23.572-.03-37.058-8.027-37.97-8.586l-.048-.03C.657 38.4.59 37.027.672 34.733l.027-.852c.035-1.58.546-9.952.995-17.34.322-5.288.613-10.025.662-11.229.076-1.753.686-3.168 1.767-4.092C4.86.592 6.178-.102 8.266.148c.712.085 1.997.32 3.778.645 6.471 1.18 18.515 3.376 29.11 3.384C51.747 4.17 63.792 1.973 70.263.793c1.78-.325 3.068-.56 3.778-.645zm2.067 3.525c-.452-.385-1.165-.39-1.686-.328-.614.074-1.925.312-3.585.616-6.57 1.198-18.8 3.428-29.683 3.436h-.002l-.654-.003C29.783 7.3 17.91 5.135 11.472 3.96c-1.66-.304-2.973-.542-3.587-.616-.52-.061-1.233-.057-1.685.328-.484.414-.616 1.195-.641 1.776-.051 1.21-.34 5.973-.665 11.289l-.146 2.39-.048.8-.049.801-.048.798-.048.792c-.333 5.52-.625 10.496-.65 11.635l-.03.896c-.063 1.75-.063 1.75.916 2.377.127.08 12.918 8.083 36.298 8.112.024 0 .042.013.064.013.024 0 .043-.013.066-.013 23.382-.029 36.171-8.032 36.298-8.112.98-.627.98-.627.915-2.378l-.027-.895c-.027-1.139-.319-6.114-.652-11.635l-.048-.792-.048-.798-.098-1.602-.048-.8-.097-1.59C77.09 11.423 76.8 6.66 76.75 5.45c-.026-.581-.157-1.362-.64-1.776z" transform="translate(-73 -34) rotate(-90 203.5 131.153) translate(31.667 32.805) rotate(90 23.985 25.145)"/>
                    </g>
                </g>
                <g>
                    <path fill="#E5E0DB" d="M62.199-51.508c-2.076 10.479-8.28 42.952-6.113 90.079 1.027 22.338 8.103 28.366 8.103 22.965V-40.513c0-4.148-.058-7.183-.156-9.375l-1.834-1.62z" transform="translate(-73 -34) rotate(-90 203.5 131.153) translate(70 116.5) rotate(90 59.911 5.941)"/>
                    <path fill="#867A6D" d="M57.416 38.293c-.504-11.026-.579-21.88-.242-32.531 1.755-.531 3.422-1.117 4.978-1.756v56.451c-1.531-2.456-4.131-8.892-4.736-22.164m4.721-82.768c.009 1.032.015 2.168.015 3.417V.36c-1.493.673-3.098 1.297-4.821 1.858.653-16.08 2.236-31.696 4.806-46.693m3.167-6.915l-4.973-1.689c-3.594 18.248-5.729 37.44-6.429 57.332-.008.057-.001.114-.005.173-.386 11.133-.338 22.48.189 34.02.785 17.229 5.125 26.526 8.808 26.526.432 0 2.592-.171 2.592-3.537V-41.058c0-4.66-.054-7.965-.182-10.332" transform="translate(-73 -34) rotate(-90 203.5 131.153) translate(70 116.5) rotate(90 59.564 5.947)"/>
                </g>
                <g>
                    <g>
                        <path fill="#E5E0DB" d="M62.199-50.98C60.123-40.5 53.919-8.028 56.086 39.1c1.027 22.338 8.103 28.366 8.103 22.965V-39.985c0-4.148-.058-7.183-.156-9.375L62.2-50.98z" transform="translate(-73 -34) rotate(-90 203.5 131.153) translate(70 19.413) translate(0 .98) matrix(0 -1 -1 0 66.38 66.38)"/>
                        <path fill="#867A6D" d="M57.416 38.81c-.504-11.026-.579-21.88-.242-32.531 1.755-.53 3.422-1.116 4.978-1.756v56.452c-1.531-2.456-4.131-8.892-4.736-22.165m4.721-82.767c.009 1.031.015 2.168.015 3.416V.877c-1.493.673-3.098 1.298-4.821 1.858.653-16.08 2.236-31.695 4.806-46.692m3.167-6.915l-4.973-1.69c-3.594 18.248-5.729 37.44-6.429 57.333-.008.057-.001.114-.005.172-.386 11.134-.338 22.481.189 34.021.785 17.228 5.125 26.525 8.808 26.525.432 0 2.592-.17 2.592-3.537V-40.54c0-4.66-.054-7.964-.182-10.331" transform="translate(-73 -34) rotate(-90 203.5 131.153) translate(70 19.413) translate(0 .98) scale(1 -1) rotate(90 66.028 0)"/>
                    </g>
                </g>
                <g>
                    <g>
                        <path fill="#E5E0DB" d="M90.028 11.028C86.715 9.214 72.17 2.325 47.198 2.3h-.135c-24.975.026-39.516 6.915-42.83 8.73-1.998 1.096-2.615 2.91-2.016 5.937.947 4.781 5.915 35.049 6.242 36.74.376 1.949 2.076 2.283 3.696 1.765 5.304-1.695 19.6-3.274 34.976-3.28 15.375.006 29.671 1.585 34.975 3.28 1.62.518 3.32.184 3.697-1.764.327-1.692 5.294-31.96 6.241-36.741.6-3.027-.017-4.841-2.016-5.938" transform="translate(-73 -34) rotate(-90 203.5 131.153) translate(168.333 27.783) rotate(90 29.126 29.333)"/>
                        <path fill="#867A6D" d="M47.063.69c26.17.026 41.02 7.44 43.732 8.925 3.831 2.1 3.124 6.124 2.84 7.574l-.019.091c-.398 2.013-1.512 8.56-2.698 15.624l-.163.966c-.08.484-.162.97-.244 1.456l-.162.973-1.26 7.535c-.314 1.892-.6 3.605-.844 5.066l-.096.57c-.419 2.507-.699 4.164-.773 4.543-.377 1.954-1.803 3.195-3.746 3.281l-.218.005c-.58 0-1.183-.098-1.792-.293-4.847-1.55-18.582-3.2-34.49-3.204-15.907.005-29.642 1.653-34.49 3.204-.609.195-1.211.293-1.792.293-2.053 0-3.57-1.26-3.962-3.286-.12-.62-.793-4.654-1.725-10.237l-1.175-7.034-.243-1.455-.082-.485-.162-.969C2.256 26.423 1.061 19.38.646 17.278c-.271-1.365-1.093-5.518 2.82-7.663C6.178 8.13 21.027.715 47.062.69zm.133 3.22c-25.388.024-39.602 7.11-42.195 8.532-.933.51-1.797 1.258-1.212 4.21.45 2.273 1.783 10.144 3.113 18.085l.162.973c.434 2.592.864 5.168 1.258 7.534.858 5.138 1.598 9.576 1.71 10.156.089.46.235.679.816.679.247 0 .53-.048.821-.142 5.97-1.907 21.215-3.35 35.461-3.355 14.247.005 29.492 1.448 35.463 3.355.29.094.572.142.82.142.583 0 .727-.219.817-.68.07-.367.394-2.288.84-4.952l.097-.582.762-4.563c1.657-9.933 3.927-23.538 4.543-26.651.585-2.951-.278-3.698-1.212-4.209-2.592-1.421-16.807-8.508-42.064-8.532z" transform="translate(-73 -34) rotate(-90 203.5 131.153) translate(168.333 27.783) rotate(90 29.126 29.333)"/>
                    </g>
                </g>
            </g>
        </g>
    </g>
</svg>
