<?xml version="1.0" encoding="UTF-8"?>
<svg id="Layer_1" xmlns="http://www.w3.org/2000/svg" version="1.1" viewBox="0 0 1000 1000">
  <!-- Generator: Adobe Illustrator 29.0.1, SVG Export Plug-In . SVG Version: 2.1.0 Build 192)  -->
  <defs>
    <style>
      .st0 {
        fill: none;
      }

      .st1 {
        fill: #f1f1f1;
      }

      .st2 {
        fill: #efefef;
      }

      .st3 {
        fill: #f0f0f1;
      }

      .st4 {
        fill: #fefefe;
      }

      .st5 {
        fill: #3661e1;
      }
    </style>
  </defs>
  <path class="st2" d="M769.35,192.48c6.35-1.18,2.64,4.02,5.7,5.85s5.64-.58,7.19-.14c1.24.34.96,3.71,3.38,4.18,4.11.79,5.71-1.74,8.86-2.9,3.47-1.28,14.54-1.66,18.48-1.34,1.43.12,2.79.48,4.14.92,3.71,6.69,7.03,13.61,11.15,20.08,3.62,5.69,8.06,14.64,16.06,12.73.61-.35-.6-4.84.04-5.84.51-.8,6.2-1.68,7.5-1.27,2.76.87,3.39,10.12,8.09,8.14.67-.28,1.02-.94,1.66-1.17,3.62-1.3,7.31,1.88,10.71,1.3,1.41-.24,3.26-4.33,7.15-4.69,5.19-.49,9.49,5.61,12.22,6.11,2.37.43,7.85-1.19,11.31-.96,6.62.45,24.24,9.93,30.7,13.6,1.43.82,6.17,3.46,6.56,4.78.82,2.8-4.82,2.81-5.41,4.57s2.42,6.87.78,8.07c-.77.56-3.62.26-4.6.81-.47.27-1.17,1.93-2.12,2.59-1.48,1.04-4.53,1.28-4.94,3.54-.16.86.22,3.15-.07,3.47-.24.27-2.87.32-3.4,1.57-.48,1.15-.17,3.99-.31,4.13-.42.42-2.51-.94-3.08-.02.34,3.67-1.21,6.16-1.89,9.42-.42,2-.29,4.09-.91,6.16-.69,2.29-2.07,3.2-2.82,5.19-.88,2.33-.83,4.85-1.31,7.18-.22,1.09-1.25,2.28-1.29,3.47-.05,1.48,1.28,1.8,1.67,2.98,1.32,3.98-2.26,3.62-3.21,5.8-.83,1.92.04,4.08-.56,6.04-.29.93-2.04,2.7-2.7,3.9-2.02,3.7-2.49,9.46-2.74,13.75-.33,5.49,1.23,3.13,3.73,5.69s-1.24,4.33-1.39,6.13c-.12,1.45,2.19,2.68,1.36,5.07-.25.72-4.88,3.6-4.54,5.76.09.55,2.88,1.43,2.51,3.09-.29,1.33-2.65,2.46-2.99,3.59-.6,1.98.72,3.98.3,5.45-.27.95-2.13,1.85-2.25,2.53-.06.36,3.7,4.74,4.4,5.87,1.84,2.98,3.34,5.2,2.43,8.95-.5,2.07-2.39,2.64-2.88,4.18-.53,1.63-.03,5.99-1.95,6.53-1.21.35-2.56-.31-3.72.53-1.33.96-2.28,5.9-3.31,6.13-.54.12-1.55-.94-2.73-.9-2.04.07-9.88,4.51-11.05,1.08-.79-2.3,1.94-4.67,1.27-6.89-.32-1.06-4.29-3.36-5.09-2.67-.24,6.51-5.3,3.57-9.65,4.25-3.72.58-2,4.21-3.2,6.7-.7,1.45-4.05,3.34-3.63,4.76.56,1.95,6.38.86,7.43,1.8.18.16,1.36,4.12,1.4,4.51.43,3.74-4.52,1.74-5.35,2.92-.66.94.23,3.91-.55,5.58s-5.67,4.08-6.13,6.12c-.31,1.38.22,5.52-.7,6.15-.49.34-1.75.02-2.6.7-.91.72-2.79,4.6-4.18,5.47-1.28.8-3.81.38-3.96.52-.43.42.44,10.08-3.54,10.83-2.48.47-4.98-.46-7.76.72-.86.37-3.85,3.03-4.27,3.74-.9,1.56.27,10.77.04,13.71-.41,5.3-3.38,7.42-7.08,10.83-2.71,2.49-15.56,12.11-16.29,14.34-.99,3.05.89,2.96,1.47,4.71,1.39,4.23-3.02,4.94-3.82,7.54-.39,1.28-.49,5.89.23,6.89.9,1.25,3.82,1.72,4.53,3.95.31.99-.04,6.11-.27,7.32-.13.72-4.43,6.08-5.15,6.63-1.15.88-2.37.92-3.58,1.61-4.06,2.3-3.47,6.26-3.52,10.38,3.68-1.13,4.22-4.7,8.79-4.69,2.12,0,2.28,2.82,4.52,2.25,1-.25,10.36-7.08,11.62-8.21s3.03-2.4,2.88-4.43c-5.24.43-2.52-3.34-2.91-5.77-.32-2.01-2.85-3.61-2.79-6.73.06-3.37,6.49-6.57,9.35-7.65,5.04-1.91,19.7-4.19,24.84-3.38.55.09,2.15.73,2.15,1.15v9.9c0,.13,1.3,1.53,1.6,2.17,2.41,5.14-.98,13.82-.21,19.53.22,1.62,1.13,1.67,1.55,2.7.61,1.51.67,4.4,2.59,4.95,1.62.47,3.88-.21,5.55.11,1.26.24,6.45,6.65,7.42,8.13,7.85,11.93-1.97,11.43-10.02,15.65-1,.52-3.15,1.54-3.71,2.42-.63,1.01-.85,9.85-.53,11.16.05.2,2.91,2.36,3.28,2.48,1.45.46,2.96,0,4.41.31,5.38,1.17,4.7,14.75,7.19,18.73.47.76,5.78,5.97,6.46,6.26,1.56.66,3.36.2,5.09.56s5.23,2.76,6.04,4.33c1.97,3.81-1.59,4.17-2.19,7.12-.53,2.6.64,9.07-1.16,10.86-.98.98-8.52.94-10.73,1.76s-5.01,3.97-7.4,5.33c-3.63,2.07-7.58,2.92-11.69,3.39-1.77.2-5.16-.45-6.52.44-.42.27-2.6,6.14-2.65,6.93-.27,3.98,3.99,3.91,5.85,6.33s1.69,6.2,3.33,7.98c1.99,2.16,8.46,6.86,11.38,7.04,1.69.1,3.39-1.04,4.64.03,1.9,3.68,9.72,12.27,9.2,16.23-.31,2.37-3.65,1.28-4.64,2.93-1.34,2.22.92,4.36-.8,6.75s-6.42.85-6.83,3.57c-.48,3.25,2.32,8.61,2.39,11.78.03,1.52-.76,2.14-.94,3.3-.75,4.94,3.45,15.76,7.27,19.07,2.02,1.75,12.3,8.34,14.72,9.31,4.64,1.87,5.46-.13,8.33.23.72.09,1.51.98,2.43,1.26,5.96,1.81,11.99-1.01,17.89-1.39,2.28-.15,12.05,0,13.21,1.87,1.45,2.36-2.55,6.29-2.97,8.37-.39,1.91.43,3.02.41,4.6-.01,1.01-.52,4.44-.86,5.3-1.2,2.97-6.15,3.32-6.96,5.28-.93,2.26-1.4,6.8-1.19,9.23.19,2.21,2.27,6,1.2,7.76-.3.49-5.35,2.87-6.14,2.86-1.46-.02-4.1-4.48-6.84-2.65-.86.57-1.96,8.42-3.33,10.33s-6.74,2.2-8.7,4.5c-2.47,2.9-3.23,11.98-8.01,12.73-3.65.57-8.61-1.57-10.67,2.05-3.82,6.73-3.04,11.37-12.37,14.02-4.63,1.32-7.71-.76-8.63,5.51-.8,5.42,3.91,5.01,3.68,7.4s-4.52,2.88-4.71,3.11c-1.31,1.56,3.41,2.66,1.01,6.9-2.85,5.05-4.16-1.43-6.83-.74-1.28.33-3.07,3.53-4.08,4.43-2.9,2.59-4.18-.29-6.28.28-1.06.29-3.81,3.85-5.98,4.42s-4.73-.07-7.11.43c-2.53.54-4.96,3.44-6.92,3.92-1.46.36-4.72-.64-4.16,1.55.4,1.56,4.76,6.71,1.03,6.57-6.17-.24-1.59-9.14-7-8.38-3.85.54-4.76,2.98-10.45,2.22-1.39-.18-15.05-5.96-16.28-6.81-2.07-1.43-3.86-9.67-7.36-6.86-1.47,1.18-.82,5.95-6.02,1.86-1.02-.8-1.01-1.99-2.43-2.28-3.4-.69-7.88,1.73-11.54.93-.48-1.83.74-3.44.92-5,.27-2.38-1.44-9.2-4.08-10s-4.82,2.06-7.01,2.26c-1.35.13-3.75-.53-5.64-.49-2.68.07-5.81,1.3-8.4-.04-.74-.38-5.91-4.84-5.87-5.37,2.91-1.54,4.76-5.72,7.22-7.3s7.96-1.31,7.31-6.12c-2.92,1.99-7.07-3.33-8.96-2.14-.97.61-1.44,4.89-3.04,6.39-2.62,2.44-9.72,1.83-10.18,6.82-.32,3.39,4.59,5.26,4.28,6.59-.68,2.96-13.37-.5-15.8-.69-2.87-.23-9.71,1.11-11.53.23-2.73-1.32,1.32-3.88,1.44-5.21.02-.21-1.09-3.9-1.27-4.01-3.42-2-11.31.98-15,.99-.95,0-4.07-.41-5.09-.61-3.63-.69-7.19-2.07-10.38-3.28-1.79-.68-4.88-.7-5.75-2.73-1.59-3.75,4.97-6.82-2.96-7.91-2.6-.36-2.14.84-3.72,1.71-6.63,3.65-7.78,7.15-12.91,10.65-1.68,1.15-3.7,1.36-5.39,2.63-3.04,2.27-3.1,5.68-7.05,7.56-2.77,1.31-4.8,1.54-7.34,3.98-3.09,2.96-2.77,6.8-8.23,6.38-2.48-.19-2.97-1.8-6.02-1.31-2.72.43-3.11,2.07-4.93,3.08s-4.84,1.32-6.7,2.73c-1.69,1.28-1.64,3.06-2.74,4.8-.98,1.54-6.35,8.7-7.49,9.48-.62.43-1.97.48-2.31.99-.49.74-.05,2.38-.32,3.45-.43,1.68-3.04,3.64-3.22,6.24-.21,3.1,2.83,5.99,2.43,9.44-.22,1.82-1.12,1.35-1.87,2.39-1.92,2.68-.22,16.69-.51,21.17-.16,2.47-2.39,10.87-.98,12.25.69.67,4.45,1.69,5.83,2.66,4.9,3.45-.36,3.55.38,6.18.26.93,6.43,6.11,5.11,7.4-6.36.09-14.14-5.51-20.02-5.18-3.55.2-14.77,4.25-17.65,6.39s-2.59,7.27-3.1,7.28c-2.31.06-3.45-4.54-4.26-4.72-.54-.12-6.43,4.48-10.32,3.77-1.49-.27-4.61-4.65-7.01-5.74-2.16-.98-12.53-1.95-14.62-1.26-.32.11-2.42,3.59-4.7,4.73-7.34,3.65-16.33,1.21-19.57-6.52-1.56-3.72.07-3.72-.1-6.51-.22-3.66-6.63-1.58-8.66-5.01-1.18-2.01-.81-8.2-2.16-9.15-.35-.25-7.52-2.52-8.24-2.6-7.47-.78-10.91,6.43-17.45-1.88-2.51-3.19-1.63-6.41-3.04-8.15-2.04-2.52-9.06.16-12.1.54-1.32.16-4.35.6-5.47.44-3.22-.45-5.88-6-8.49-7.1-3.54-1.49-8.44-.06-11.33-.92-.88-.26-1.5-1.69-2.66-2.05-1.83-.57-3.92.21-5.82-.78s-2.18-4.65-5.32-2.76c-4.87,2.93,3.69,11.25-4.23,13.67-3.87,1.18-12.95,1.15-16.67-.25-.67-.25-1.17-1.57-2.39-1.14-.28,1.18-2.24,6.87-3.08,7.07-3.26-1.23-1.95-6.98-5.69-7.52-2.69-.39-4.66,1.68-7.97,1.4-2.49-.21-4.93-2.59-7.07-2.36-.87.09-3.02,2.47-4.49,3.06-3.18,1.28-5.51.93-7.74-1.69-.45-.53-4.45-6.71-4.63-7.15-.44-1.1-.17-2.31-.59-3.18-1.38-2.86-7.8,1.29-9.46,1.4-2.49.16-5.81-2.75-7.99-2.85-1.69-.07-3.63,1.49-5.51,2.05s-9.26,1.48-10.74.58c-.98-.59-1.18-3.86-2.13-4.94-1.82-2.09-6.12-2.51-6.79-6.88-.29-1.91,1.08-7.75-1.9-6.56-2.49,1-2.75,2.23-6.36,1.61-1.84-.32-3.54-2.56-4.85-2.74-1.02-.14-1.46.76-2.28.89-3.06.49-5.92-4.03-8.09-4.61s-5.38,1.03-7.82.28c-1.51-2.63-4.85-3.99-6.36-6.36-2.04-3.19-1.51-7.73-4.56-10.53-2.23-.56-1,6.83-2.89,7.47-1.73.59-3.63-.42-5.12-.4-3.7.04-8.76,2.39-6.86-4.03.5-1.7,4.06-9.25,5.03-11,1.08-1.95,4.71-4.91,2.97-7.32-.33-.46-5.93-3.53-7.2-4.59-1.06-.88-2.41-4.09-3.39-.9-.43,1.4.18,2.86-.65,4.07-.91.66-5.16-.68-6.12-1.49-.77-.64-1.41-2.35-2.4-2.78-1.98-.87-4.14.34-6.83-1.65-2.48-1.84-1.72-4.02-3.12-5.83-1.08-1.4-3.98-1.04-1.32-3.8.24-.25,5.32-3.65,5.63-3.8,2.15-.99,4.67.67,7.55-1.4.77-.55,5.91-6.97,6.29-7.84.91-2.06.39-4.86,1.27-6.27,1.31-2.07,6.04-1.61,6.92-5.81,1.12-5.36.78-12.49,2.02-17.78.35-1.49,1.91-2.46,2.23-3.9.5-2.25.25-6.12.63-8.79.44-3.07,2.19-7.34,2.31-9.98.13-2.95-2.12-6.28-1.81-8.81s5.37-5.49,7.18-8.41c4.25-6.85,1.58-10.92,2.66-17.61.22-1.39,2.02-3.82,2.57-5.91.88-3.34,1.89-10.53,1.59-13.86s-1.78-3.25,1.93-6.18c.56-1.31-2.61-.2-3.3-1.52s-2.08-7.77-1.85-9.28c.32-2.15,2.46-3.71,3.05-5.44,1-2.94,2.29-8.52,2.09-11.56-.35-5.47-3.05-8.02.1-13.58,1.26-2.22,3.52-3.48,4.04-5.86,3.36-15.35,4.12-32.16,7.55-47.59.8-1.64,6.38-6.1,8.09-6.53,2.14-.54,1.18,2.57,1.64,4.07.37,1.2,2.2,2.38,2.82,3.78,2.41,5.39,1.55,2.58,4.77,6.07,4.55,4.93,6.55,9.09,9.29,15.22.28.63,1.03,1.07,1.2,1.63.65,2.19-.9,4.26-.81,6.43.15,3.73,2.8,6.04,3.16,8.68.24,1.75-.44,2.88-.34,4.52.35,5.6,4.82,8.48,8.69,11.61l1.41-3.29c1.55,1.04,3.61,7.75,5.62,4.67,1.7-2.6-.07-7.44-3.29-7.95-1.34-.21-5.05.42-5.66-.47-.21-.31-.78-4.51-1.26-5.81-.56-1.54-2.26-3.58-2.53-4.58-.3-1.07.43-4.13.28-5.89-.17-1.98-1.21-3.78-1.41-5.65-.4-3.76,1.86-10.16.2-12.93-.9-1.5-2.66-1.61-3.72-2.88-2.4-2.89-4.3-10.97-8.01-13.67-1.13-.82-3.3-.61-4.48-1.64-.85-.75-2.48-4.43-3.59-5.84-4.68-5.92-11.11-5.44-16.47-11.81-1.61-1.92-1.21-6.8.73-8.26,4.47-3.37,6.29,4.25,10.83,4,.5-.45-6.26-8.62-5.67-12,.43-2.5,5.3-1.69,5.66-2.89-.05-1.82-3.18-6.45-2.78-7.91.57-2.06,5.16,2.07,4.65-2.84-.57-5.5-4.58-8.01-6.67-11.73-.68-1.21-.7-2.54-1.21-3.5-1.24-2.32-4.1-3.86-2.58-7.09,1.19-2.54,6.55-3,7.92-4.33.18-.18,2.48-4.25,2.48-4.51,0-.28-3.2-4.02-3.69-4.23-5.43-2.3-2.8,3.87-4.94,6.34l-3.77-4.23c-2.04,5.55-4.85-3.63-6.84-4.47-2.21-.93-7.5-.11-8.97-2.34-.5-.75-.6-2.89-1.62-2.97-.27-.02-2.31,1.11-3.34,1.25-6.99.97-6.52-4.42-10.31-6.58-1.43-.82-3.44-.5-4.96-1.64-2.28-1.72-.77-3.97-1.86-5.68-1.17-1.82-5.42-2.3-5.63-2.62-.26-.39.07-2.04-.16-2.9-1.84-6.9-5.06-16.8-10.25-21.8-1.6-1.54-2.9-1.45-4.5-2.57-.8-.56-4.01-3.88-4.27-4.7-.84-2.63,3.03-6.84,4.14-9.58.48-1.18.37-2.8.93-3.79.96-1.68,4.97-2.49,5.94-6.32.17-.68.02-2.4.1-2.49.16-.17,3.5.13,4.25,0,1.56-1.62-6.29-8.15-8.35-8.39-.9-.11-1.82.59-2.65.34-.59-.18-1.22-1.7-1.96-2.32-3.03-2.55-4.8-.66-3.9-6.71.24-1.64,1.38-3.4,1.74-4.85.48-1.94-.32-4.62,1.49-6.52,2.87-3.02,14.13.62,17.36,2.81,4.33,2.94,4.04,7.99,11.09,6.78.56-.1,1.11-.28,1.2-.92-4.86-.15-6.49-4.65-9.46-6.81-.9-.65-9.44-5.31-10.13-5.42-1.53-.24-9.32.48-10.69,1.03-1.94.79-5.61,5.97-8.24,6.4-1.5.24-4.23-1.59-6.01-1.82-1.16-.15-3.04-.07-4.25.02-2.88.22-6.83,2.48-8.37-1.07-2.17-5.02,4.65-1.11,5.29-1.77.29-2.82-2.8-4.93-2.35-7.74.29-1.85,3.08-3.74,4.16-5.3,3.82-5.49-1.76-3.44-1.81-4.17-.22-3.11,4.19-2.56,3.08-4.94-.33-.7-3.01-2.42-3.84-2.78-2.46-1.07-10.48-1.02-13.13-.51-1.83.35-4.33,3.6-7.51,3.29-1.29-.13-6.53-3.77-4.99-5.42,2.15-2.3,6,.48,9.58-1.73.85-.52,3.9-3.82,4.33-4.63,1.29-2.4-3.88-.9-4.71-.92-1.59-.04-3.36-1.43-5.12-.99-.7.17-.59,3.31-3.26,2.78s-3.18-6.47-4.35-6.52c-2.14-.08,1.42,7.74.71,8.47-1.01-.18-2.64.26-3.49.03-.47-.13-.67-3.45-1.94-3.79-3.78,6-5.01-.95-5.66-.94-1.3,1.53-2.49,4.34-2.12,6.33.35,1.88,6.19,5.62,5.65,8.74-1.35.31-2.5-.68-3.64-.84-.76-.11-1.65.5-2.2.34-1.61-.46-1.72-10.66-2.38-12.72-.52-1.63-2.61-2.07-2.54-3.84.03-.64,1.16-4.26,1.55-4.62.89-.81,3.61-.47,4.95-1.65.33-.3,3.16-4.64,2.84-4.93-1.14-.6-4.31,2.32-4.71,1.88-.4-1.12,1.24-4.04.74-4.72-1.19-1.62-5.55.65-5.85,2.2-.21,1.09,2.11,2.16,1.68,4.74-.31,1.87-3.08.65-4.3.09-1.87-.86-4.89-3.8-6.77-4.11-1.73-.29-3.69,1.2-5.54,1.35-6.33.48-3.23-4.66-6.18-7.02-.74-.59-12.14-6.61-12.98-6.81-2.8-.68-8.46.33-10.26-1.05-1.58-1.21-2.13-8.36-3.56-8.7s-1.55,2.79-2.91,3.21c-6.43,1.97-9.6-6.16-8.64-11.22-1.56.91-2.61,4.17-2.74,5.89-.24,3.13-.37,2.36-.94,4.81-.32,1.39.35,4.23-1.04,5.08-1.68,1.03-13.97,1.16-15.52-.02-2.21-1.67.42-4.63-.03-7.03-.26-1.41-2.18-1.99-2.35-3.83-.14-1.51.67-2.9.35-5.03-.27-1.83-2.22-7.51-3.62-8.63-1.82-1.46-2.77-.19-4.47-.24-1.2-.03-2.52-.91-3.82-.91-1.94,0-4.09,1.88-5.66,1.84-.26,0-4.54-1.37-4.46-1.6,1.61-1.59,3.5-7.08,5.51-7.68,3.12-.93,7.14,2.47,11.66,1.75,3.13-.49,4.74-4.67,8.3-3.53,1.1.35,3.01,2.34,4.4,2.06.21-.04,2.78-2.97,2.9-3.23.3-.64-.47-5.51-.82-6-.18-.25-2.86-1.24-3.63-1.79-1.56-1.11-4.37-4.52-6.78-3.91-2.22.56-1.54,6.21-6.78,3.33-2.64-1.45-1.15-4.96-.04-7.29s3.21-2.88,2.73-5.53c2.06-.42,4.07,2.28,5.94,2.37,1.13.05,1.87-1.21,2.75-.95.53.16,1.42,3.61,3.91,4.15,1.69.37,3.32-.73,4.52-.33s2.25,5.81,5.7,5.59c2.93-.19,2.09-2.87.96-4.68-1.5-2.41-7.68-.88-9.65-2.13-1.69-1.08,2.02-3.32.5-4.27s-11.56,1.27-5.64-3.26c.38-.29,7.43-3.36,6.1-4.5-4.62-.87-6.74,4.07-11.11,4.67-1.47.2-5.63.28-7.01.02s-2.43-1.89-4.26-1.89c-2.09,0-7.04,5.47-8.16.39.93-1.82.6-3.87.97-5.68.25-1.22,1.38-2.37,1.29-3.85-.18-2.73-4.88-5.26-1.89-8.53,3.78-4.14,6.56-2.41,10.98-3.15.91-.15,6.23-2.42,6.94-2.96,1.81-1.38.36-2.63.48-4.47,2.15-.4,4.3.67,6.36.49.44-.04,4.75-1.5,4.96-1.66.8-.59.2-4.82,1.63-4.93s4.48,5.98,5.44,7.27c5.11,2.32,4.37-.25,5.9-3.03,1.28-2.32,7.24.67,9.63-.98-1.62-5.02-.6-2.32,1.68-4.21.78-.65.8-1.71,1.5-2.4.89-.86,4.8-2.87,4.84-.71s-4.87,4.93-4.68,6.08c2.45,2.8,5.73,1.73,4.68,6.9,1.69.33,6.15-2.12,6.53-3.64s-1.7-3.15,1.23-3.46c3.69-.39,3.39,1.68,4.71,1.93,1.8.33,6.22-.83,7.08.94.37.76.06,2.17.68,2.62,1.4,1.02,4.51-.36,5.7-1.43,3.18-2.86.93-4.52.56-7.68-.41-3.47,2.14-.79,3.68-1.74.39-.24,3.71-7.98,4.67-4.66.24.82-.7,3.87-.44,5.61.09.62-.26.83.71.7,3.67-.51,5-6.59,6.2-7,1.51-.51,3.04.48,4.51.31,1.74-.2,3.25-2.42,3.89-2.27.55.13,1.49,3.85,2.83,4.23.74.01,1.06-3.92,1.87-4.72.76-.74,3.48-.45,4.49-1.87.84,1.83-2.62,6.38-1.82,7.49.12.16,3.27,1.93,3.47,1.94.94.03,1.6-1.1,2.6-.94-.84,3.58,4.19,3.2,4.98,4.72.41.79-.79,4.95-.19,6.75.25.75,2.34,1.37,3.23,2.43,1.43,1.7,1.31,4.29,2.32,5.56.61.77,1.89.54,2.51,1.86,1.04,2.21-.34,5.7.78,8.06,2.96,1,4.45,2.85,7.75,2.62,2.77-.19,13.58-4.32,14.35-6.89.83-2.76-1.49-4.18-1.31-6.73,2.16-.76,7.19,4.07,8.23,3.77,2.39-.69-1.69-7.04-1.62-7.78.25-2.63,6.76,1.62,7.41,4.83.2.99-.05,4.22.11,4.37.19.18,2.41-.4,3.57.43,1.81,1.29.58,3.53.72,3.74.07.11,2.02,1.42,2.15,1.44,1.3.26,3.85-7.29,8.46-7.48,1.27-.05,2.53,1.1,3.48.7,1.7-.72,4.19-5.41,4.72-5.68,1.82-.92,4.18.44,5.34.17.87-.2,2.48-2.62,3.39-3.22,1.65,2.75-4.53,8.96-1.66,10.61.79.45,1.97.04,2.84.46.73.35.87,1.76,1.72,2.05.74.25,4.61.21,5.59.09,1.49-.18,2.58-1.25,4.21-.97,1,.18,1.32,1.13,2,1.33,2.1.61,1.92.09,4.4,1.27,1.31.62,3.52-.97,5.16-1.42,2.76-.74,6.78-.27,8.72-2.12,1.83-1.75-1.99-1.34-3.09-1.62-4.39-1.12-3.02-1.52-5.38-4.05-.81-.86-2.63-1.99-3.03-2.63-.21-.34-1.71-5.51-1.82-6.19-.83-5.22,2.65-6.45,2.7-8.37.02-.75-.96-2.05-.97-3.78,0-1.95.73-4.16.98-6.13.16-1.27-.29-3.08.08-4.16.52-1.51,5.07-1.27,3.69-5.02-2.35-.24-2.73,2.69-4.23,4.01-.43.38-.74,1.06-1.2.23-.63-1.14.71-9.02.23-11.54-.28-1.44-2.44-2.49-2.35-4.21.08-1.6,3.05-6.62,2.32-8.91-.2-.62-6.43-5.49-6.49-8.07-.02-1.05,1.06-2.26-.05-3.34-.76-.74-3.65-1.19-4.85-1.74-.82-.37-1.29-1.34-1.73-1.53-.53-.22-1.41.38-2.08.18-1.4-.41-.6-6.04-.82-7.7-.19-1.44-1.08-2.84-1.33-4.32-.23-1.31.24-2.92-.13-4.12-.32-1.06-1.69-1.16-2.06-1.74-.39-.61,1.06-4.45,1.19-5.9.22-2.33.33-6.54-.93-8.48-1.1-1.69-5-3.15-2.06-4.88,4.59-2.71,5.83,2.08,9.48,2.67,2.13.34,4.24-.92,6.38-.28,2.47.74,1.97,5.91,7.99,4.97,3.27-.51,5.48-3,8.02-3.76,1-.3,10.08-.46,11.3-.25,1.92.32,6.59,2.64,7.21,4.58,1.61,5.04-5.44,8.75-9.68,8.98-.79,1.09,6.17,5.08,5.58,8.59-.13.75-1.68,2.71-1.34,3.18,1.97.33,6.7,2.44,7.01,4.59.28,1.96-2.43,2.31-3,3.43-.32.63-.22,1.55-.51,2.32-.2.54-2.19,3.39-.37,3.83,2.23.54,3.05-1.44,4.17-2.85,1.24-.3,1.67,2.84,2.58,1.88.22-.23.57-4.54,1.48-5.83,2.89-4.14,9.22,2.55,11.99,2.98,6.72,1.04,17.13.22,23.89-.34,6.13,2.4,11.95,7.18,18.13,9.22,5.08,1.68,14.8,1.55,19.2-1.79,1.28-.97,2.81-3.31,4.14-3.87,1.61-.69,3.33-.14,5.08-.58,3.55-.9,8.78-5.43,12.95-5.43h8.25c-5.75-6.26-16.42.67-22.26-2.01-3.82-1.75,2.49-6.41,3.8-8.21,2.46-3.38,2.95-5.59,1.83-9.68-.68-2.51-4.1-6.83-2.01-8.89,1.16-1.14,14.6-4.62,17.87-6.17,6.45-3.05,12.62-9.41,19.25-11.86,9.58-3.53,22.64-.29,30.87-4.48,5.77-2.94,22.06-16.65,26.3-21.77,1.27-1.53,3.92-6.64,5.28-7.01,1.43-.39,1.9.74,2.96,1.12,1.34.47,3.65.89,4.68,1.44,1.65.88,1.75,2.79,4.6,2.87,4.15.13-.32-2.8-1.05-3.59-1.71-1.84-3.13-4.13-5.16-5.68-1.87-1.42-5.67-2.41-6.27-5.05-.67-3,2-8.95,2.25-12.63.16-2.28-.58-5.82-.37-7.43.27-2.08,4.25-6.01,4.63-8.59.15-1.02-.13-.59-.71-.69-1.19-.21-3.11,0-3.77-1.42-.16-.36-1.17-7.17-1.14-7.75.16-3.51,5.06-7.54,5.1-13.18.03-3.67-1.89-5.18.42-9.1s6.79-4.45,9.55-7.42,1.95-6.29,7.28-6.85c3.71-.39,7.77,1.74,11.07-.73.64-.48.83-1.38,1.27-1.66,1.97-1.2,6.08.54,8.39.54,8.54,0,15.93-5.29,23.3-6.9,3.73-.81,2.42-.11,3.31,2.41,1.12,3.19,4.09,8.5,4.62,11.4.65,3.5.04,8.28.83,11.9,5.41,4.53,10.35,9.84,16.25,13.68l-.57,1.63c-20.65,18.11-8.52,41.94,5.36,59.83,1.56,2.01,10.91,12.99,12.8,12.55,2.72-.64,14-14.13,15.58-16.28,7-9.51,13.07-20.12,13.47-32.2l.94-1.48c3.55,5.74,5.85,12.32,7.54,18.85,2.41-.58,3.3-3.8,5.91-4.21,3.34-.53,15.33-.45,18.83-.04,2.48.3,3,2.2,4.69,3.79.91.86,3.36,2.31,3.8,3.31.87,1.97-3.29,12.84-2.95,15.72.2,1.71,5.74,7.55,5.52,8.5-.61.85-8.46,5.27-8,5.92,3,1.24,4.63,4.8,7.52,6.4,5.25.19,10.49,1.06,15.7.1,3.49-.65,2.6-3.2,4.14-4.35.99-.74,4.02-1.02,5.49-1.58,7.14-2.75,5.28-5.2,7.32-11.06.77-2.2,3.73-7.9,6-8.62,2.48-.78,4.22.88,4.89,3.18,1.62,5.55-3.98,8.68-5.56,13.6-2.01,6.24.31,4.45,3.97,7.33,4.65,3.66,1.31,9.44,4.5,12.47,1.75,1.66,8.91,3.1,11.56,3.76l-.58,1.66c-21.98,19.54-5.26,46.63,10.05,64.26,1.41,1.62,6.94,7.77,8.88,7.55s14.68-15.2,16.47-17.89c6.7-10.04,12.9-20.16,12.4-32.77l.86-1.61Z"/>
  <path class="st5" d="M769.35,192.48c-1.74-23.03-29.55-35.26-48.08-21.21-13.99,10.61-14.59,26.96-7.86,42.03,4.03,9.03,15.1,24.27,22.7,30.56,1.06.88,2.17,2.1,3.66,1.81,2.79-.53,15.27-15.7,17.51-18.84,7.15-10.03,13.02-21.66,12.07-34.35ZM755.68,192.48l-.9.56c.78,7.03-7.86,4.65-8.07-1.02-.13-2.61-.95-4.27-2.44-4.99-5.53,1.99-5.89,2.02-5.22-4.05.24-2.38-.34-3.76-1.75-4.17,8.38-.75,17.6,4.72,18.38,13.67Z"/>
  <path class="st5" d="M582.71,69.47c-2.67-.29-7,.76-8.01,3.3-.25.14-1.44,1.09-1.88,1.41-10.5,7.74-14.58,20.53-11.65,33.09,2.91,12.43,16.19,31.84,26.01,39.98.88.73,2.09,1.93,3.27,1.88,1.56-.08,8.02-6.9,9.47-8.49,10.16-11.08,20.84-26.87,20.5-42.42-.43-19.45-18.67-33.54-37.71-28.75ZM605.33,91.62c-4.62,2.17-5.2-1.47-6.82-4.72l-.72-2.82c4.24,2.08,5.48,3.19,7.54,7.54Z"/>
  <path class="st3" d="M582.71,69.47c-1.62.41-6.56,2.45-8.01,3.3v-5.65s8.01,2.35,8.01,2.35Z"/>
  <path class="st5" d="M729.66,438.17c19.66-1.54,33.85,15.43,32.14,34.49-1.21,13.46-17.07,36.71-27.79,44.79-2.46,1.86-2.98,1.31-5.2-.48-9.7-7.81-23.23-27.7-26.15-39.83-4.53-18.83,7.25-37.43,27.01-38.98Z"/>
  <path class="st5" d="M363.94,742.15c19.66-1.54,33.85,15.43,32.14,34.49-1.21,13.46-17.07,36.71-27.79,44.79-2.46,1.86-2.98,1.31-5.2-.48-9.7-7.81-23.23-27.7-26.15-39.83-4.53-18.83,7.25-37.43,27.01-38.98Z"/>
  <path class="st5" d="M513.34,136.07c19.66-1.54,33.85,15.43,32.14,34.49-1.21,13.46-17.07,36.71-27.79,44.79-2.46,1.86-2.98,1.31-5.2-.48-9.7-7.81-23.23-27.7-26.15-39.83-4.53-18.83,7.25-37.43,27.01-38.98Z"/>
  <path class="st5" d="M812.61,715.76c19.66-1.54,33.85,15.43,32.14,34.49-1.21,13.46-17.07,36.71-27.79,44.79-2.46,1.86-2.98,1.31-5.2-.48-9.7-7.81-23.23-27.7-26.15-39.83-4.53-18.83,7.25-37.43,27.01-38.98Z"/>
  <path class="st5" d="M588.27,715.76c19.66-1.54,33.85,15.43,32.14,34.49-1.21,13.46-17.07,36.71-27.79,44.79-2.46,1.86-2.98,1.31-5.2-.48-9.7-7.81-23.23-27.7-26.15-39.83-4.53-18.83,7.25-37.43,27.01-38.98Z"/>
  <path class="st5" d="M716.94,635.17c19.66-1.54,33.85,15.43,32.14,34.49-1.21,13.46-17.07,36.71-27.79,44.79-2.46,1.86-2.98,1.31-5.2-.48-9.7-7.81-23.23-27.7-26.15-39.83-4.53-18.83,7.25-37.43,27.01-38.98Z"/>
  <path class="st5" d="M558.11,227.5c19.66-1.54,33.85,15.43,32.14,34.49-1.21,13.46-17.07,36.71-27.79,44.79-2.46,1.86-2.98,1.31-5.2-.48-9.7-7.81-23.23-27.7-26.15-39.83-4.53-18.83,7.25-37.43,27.01-38.98Z"/>
  <path class="st5" d="M420.02,618.67c19.66-1.54,33.85,15.43,32.14,34.49-1.21,13.46-17.07,36.71-27.79,44.79-2.46,1.86-2.98,1.31-5.2-.48-9.7-7.81-23.23-27.7-26.15-39.83-4.53-18.83,7.25-37.43,27.01-38.98Z"/>
  <path class="st5" d="M371.01,245.88c19.66-1.54,33.85,15.43,32.14,34.49-1.21,13.46-17.07,36.71-27.79,44.79-2.46,1.86-2.98,1.31-5.2-.48-9.7-7.81-23.23-27.7-26.15-39.83-4.53-18.83,7.25-37.43,27.01-38.98Z"/>
  <path class="st5" d="M819.21,251.06c19.66-1.54,33.85,15.43,32.14,34.49-1.21,13.46-17.07,36.71-27.79,44.79-2.46,1.86-2.98,1.31-5.2-.48-9.7-7.81-23.23-27.7-26.15-39.83-4.53-18.83,7.25-37.43,27.01-38.98Z"/>
  <path class="st5" d="M819.21,559.76c19.66-1.54,33.85,15.43,32.14,34.49-1.21,13.46-17.07,36.71-27.79,44.79-2.46,1.86-2.98,1.31-5.2-.48-9.7-7.81-23.23-27.7-26.15-39.83-4.53-18.83,7.25-37.43,27.01-38.98Z"/>
  <path class="st5" d="M558.11,538.08c19.66-1.54,33.85,15.43,32.14,34.49-1.21,13.46-17.07,36.71-27.79,44.79-2.46,1.86-2.98,1.31-5.2-.48-9.7-7.81-23.23-27.7-26.15-39.83-4.53-18.83,7.25-37.43,27.01-38.98Z"/>
  <path class="st5" d="M333.77,339.19c19.66-1.54,33.85,15.43,32.14,34.49-1.21,13.46-17.07,36.71-27.79,44.79-2.46,1.86-2.98,1.31-5.2-.48-9.7-7.81-23.23-27.7-26.15-39.83-4.53-18.83,7.25-37.43,27.01-38.98Z"/>
  <path class="st5" d="M656.61,345.32c19.66-1.54,33.85,15.43,32.14,34.49-1.21,13.46-17.07,36.71-27.79,44.79-2.46,1.86-2.98,1.31-5.2-.48-9.7-7.81-23.23-27.7-26.15-39.83-4.53-18.83,7.25-37.43,27.01-38.98Z"/>
  <path class="st5" d="M420.02,447.59c19.66-1.54,33.85,15.43,32.14,34.49-1.21,13.46-17.07,36.71-27.79,44.79-2.46,1.86-2.98,1.31-5.2-.48-9.7-7.81-23.23-27.7-26.15-39.83-4.53-18.83,7.25-37.43,27.01-38.98Z"/>
  <path class="st4" d="M261.29,712.79c1.28-4.87,2.21-9.31,4.99-13.62,3.96-6.14,3.14-.75,5.36,1.63,1.72,1.85,6.4,2.58,6.86,3.5.51,1.01.13,5.36-.68,5.92-2.48,1.73-7.84-2.37-10.12-2.15-2.07.2-5.58,5.4-6.41,4.71Z"/>
  <path class="st1" d="M738.94,212.31c-20.8-.34-21.68-31.7-1.64-33.5,1.41.41,1.99,1.79,1.75,4.17-.67,6.07-.31,6.04,5.22,4.05,1.49.72,2.31,2.38,2.44,4.99.21,5.67,8.85,8.05,8.07,1.02l.9-.56c2.6,10.14-6.69,19.99-16.74,19.83Z"/>
  <path class="st0" d="M754.78,193.04c.78,7.03-7.86,4.65-8.07-1.02-.13-2.61-.95-4.27-2.44-4.99-5.53,1.99-5.89,2.02-5.22-4.05.24-2.38-.34-3.76-1.75-4.17,8.38-.75,17.6,4.72,18.38,13.67l-.9.56Z"/>
  <path class="st4" d="M752.59,198.11c-6.24,1.06-6.73-5.81-7.76-10.34-11.18,4.54-4.7-3.03-7.53-8.96,1.41.41,1.99,1.79,1.75,4.17-.67,6.07-.31,6.04,5.22,4.05,1.49.72,2.31,2.38,2.44,4.99.21,5.67,8.85,8.05,8.07,1.02l.9-.56c.26,2.99.39,5.04-3.09,5.63Z"/>
  <path class="st0" d="M605.33,91.62c-4.62,2.17-5.2-1.47-6.82-4.72l-.72-2.82c4.24,2.08,5.48,3.19,7.54,7.54Z"/>
  <path class="st1" d="M578.21,110.5c-12.53-12.65,1.99-35.07,19.58-26.42l.72,2.82c1.62,3.25,2.2,6.89,6.82,4.72,8.3,17.49-13.95,32.17-27.12,18.88Z"/>
  <path class="st1" d="M728.7,451.81c24.12-3.35,26.63,31.33,4.53,33.28-21.69,1.92-24.38-30.53-4.53-33.28Z"/>
  <path class="st1" d="M362.98,755.8c24.12-3.35,26.63,31.33,4.53,33.28-21.69,1.92-24.38-30.53-4.53-33.28Z"/>
  <path class="st1" d="M512.38,149.71c24.12-3.35,26.63,31.33,4.53,33.28s-24.38-30.53-4.53-33.28Z"/>
  <path class="st1" d="M811.65,729.41c24.12-3.35,26.63,31.33,4.53,33.28-21.69,1.92-24.38-30.53-4.53-33.28Z"/>
  <path class="st1" d="M587.31,729.41c24.12-3.35,26.63,31.33,4.53,33.28-21.69,1.92-24.38-30.53-4.53-33.28Z"/>
  <path class="st1" d="M715.98,648.82c24.12-3.35,26.63,31.33,4.53,33.28-21.69,1.92-24.38-30.53-4.53-33.28Z"/>
  <path class="st1" d="M557.15,241.15c24.12-3.35,26.63,31.33,4.53,33.28-21.69,1.92-24.38-30.53-4.53-33.28Z"/>
  <path class="st1" d="M419.06,632.32c24.12-3.35,26.63,31.33,4.53,33.28-21.69,1.92-24.38-30.53-4.53-33.28Z"/>
  <path class="st1" d="M370.04,259.53c24.12-3.35,26.63,31.33,4.53,33.28s-24.38-30.53-4.53-33.28Z"/>
  <path class="st1" d="M818.25,264.71c24.12-3.35,26.63,31.33,4.53,33.28s-24.38-30.53-4.53-33.28Z"/>
  <path class="st1" d="M818.25,573.41c24.12-3.35,26.63,31.33,4.53,33.28-21.69,1.92-24.38-30.53-4.53-33.28Z"/>
  <path class="st1" d="M557.15,551.73c24.12-3.35,26.63,31.33,4.53,33.28-21.69,1.92-24.38-30.53-4.53-33.28Z"/>
  <path class="st1" d="M332.81,352.84c24.12-3.35,26.63,31.33,4.53,33.28-21.69,1.92-24.38-30.53-4.53-33.28Z"/>
  <path class="st1" d="M655.65,358.97c24.12-3.35,26.63,31.33,4.53,33.28-21.69,1.92-24.38-30.53-4.53-33.28Z"/>
  <path class="st1" d="M419.06,461.24c24.12-3.35,26.63,31.33,4.53,33.28-21.69,1.92-24.38-30.53-4.53-33.28Z"/>
</svg>